<svg width="643" height="124" viewBox="0 0 643 124" fill="none" xmlns="http://www.w3.org/2000/svg">
<path d="M519.956 81.9701H488.946V91.6114H519.956V81.9701Z" fill="#CCC3A8"/>
<path d="M513.668 84.5664C513.668 87.0831 514.225 89.4697 515.219 91.6113H521.244V81.97H513.869C513.737 82.816 513.668 83.6831 513.668 84.5664Z" fill="#C9B585"/>
<path d="M505.74 49.763H468.829L498.039 84.5664H517.839V49.763H510.622" fill="#FFB92E"/>
<path d="M475.056 43.5545C475.056 43.5545 476.775 37.9033 482.205 36.8783C487.635 35.8533 493.81 33.9515 496.44 31.5424C499.07 29.1331 503.883 32.1761 505.308 34.8389C506.732 37.5016 512.793 36.802 514.737 43.555L475.056 43.5545Z" fill="#7C7A75"/>
<path d="M517.839 49.9586V43.7447H483.824H467.193C465.665 43.7447 464.426 44.9836 464.426 46.5119V47.1916C464.426 48.7199 465.665 49.9588 467.193 49.9588H468.83" fill="#F28838"/>
<path d="M502.734 82.6072L502.372 82.1637L502.372 82.163V82.1631L475.124 48.7889H470.115L497.363 82.1633L497.363 82.1631L497.364 82.1638L497.726 82.6073C498.38 83.3017 499.964 84.5663 502.827 84.5663C502.832 84.5663 502.836 84.5664 502.841 84.5664H507.849C507.845 84.5664 507.84 84.5663 507.835 84.5663C504.972 84.5663 503.388 83.3019 502.734 82.6072Z" fill="#EF9A1D"/>
<path d="M488.183 39.6843C492.639 38.3288 497.708 35.8139 499.866 32.6282C500.373 31.8808 500.979 31.5343 501.623 31.4807C500.213 31.0562 498.791 31.1378 497.726 32.1128C495.096 34.5217 488.921 36.4237 483.491 37.4487C478.061 38.474 476.342 44.1249 476.342 44.1249H483.802C484.722 42.2324 486.129 40.309 488.183 39.6843Z" fill="#6B6861"/>
<path d="M469.517 47.1916V46.5119C469.517 44.9836 470.756 43.7447 472.284 43.7447H468.48C466.952 43.7447 465.713 44.9836 465.713 46.5119V47.1916C465.713 48.7199 466.952 49.9588 468.48 49.9588H470.116H472.284C470.755 49.9586 469.517 48.7199 469.517 47.1916Z" fill="#EF711D"/>
<path d="M527.581 43.4183C526.118 43.4183 524.932 44.6043 524.932 46.0673V73.1293C526.641 72.2794 528.567 71.7988 530.606 71.7988C537.658 71.7988 543.374 77.5151 543.374 84.5666C543.374 85.5042 543.27 86.4173 543.078 87.2976H548.925C550.388 87.2976 551.574 86.1116 551.574 84.6482V60.8052L538.253 43.4183H527.581Z" fill="#FFB92E"/>
<path d="M533.882 51.9142V61.7095C533.882 62.9698 534.904 63.9918 536.165 63.9918H551.574V60.8054L543.014 49.632H536.165C534.904 49.6318 533.882 50.6538 533.882 51.9142Z" fill="#36A1CB"/>
<path d="M530.022 86.1564V46.0671C530.022 44.6064 531.21 43.4181 532.671 43.4181H528.867C527.406 43.4181 526.218 44.6064 526.218 46.0671V86.1562C526.218 86.7864 526.729 87.2974 527.359 87.2974H531.163C530.533 87.2976 530.022 86.7866 530.022 86.1564Z" fill="#EF9A1D"/>
<path d="M538.973 61.7095V51.9142C538.973 50.6538 539.994 49.6318 541.255 49.6318H537.451C536.191 49.6318 535.169 50.6536 535.169 51.9142V61.7095C535.169 62.9698 536.191 63.9918 537.451 63.9918H541.255C539.995 63.9916 538.973 62.9697 538.973 61.7095Z" fill="#2B80AF"/>
<path d="M517.839 82.7395V49.763H524.932V73.8942" fill="#CCC3A8"/>
<path d="M551.574 70.0778H547.766C546.506 70.0778 545.484 71.0996 545.484 72.3601V73.5013C545.484 74.7617 546.506 75.7837 547.766 75.7837H551.574V70.0778Z" fill="#EF711D"/>
<path d="M481.11 97.3339C488.161 97.3339 493.878 91.6176 493.878 84.5663C493.878 77.5149 488.161 71.7987 481.11 71.7987C474.059 71.7987 468.342 77.5149 468.342 84.5663C468.342 91.6176 474.059 97.3339 481.11 97.3339Z" fill="#7C7A75"/>
<path d="M530.605 97.3339C537.657 97.3339 543.373 91.6176 543.373 84.5663C543.373 77.5149 537.657 71.7987 530.605 71.7987C523.554 71.7987 517.838 77.5149 517.838 84.5663C517.838 91.6176 523.554 97.3339 530.605 97.3339Z" fill="#7C7A75"/>
<path d="M486.64 85.8358C486.655 85.7705 486.67 85.705 486.682 85.6389C486.69 85.5995 486.697 85.5598 486.704 85.5197C486.715 85.4548 486.724 85.3895 486.733 85.3239C486.738 85.2843 486.744 85.2448 486.748 85.2051C486.756 85.1339 486.762 85.0627 486.767 84.991C486.77 84.9563 486.773 84.9222 486.775 84.8878C486.781 84.7812 486.785 84.6744 486.785 84.5663C486.785 84.3706 486.775 84.1769 486.755 83.986C486.542 81.888 485.186 80.1276 483.319 79.3381C482.641 79.0509 481.894 78.8922 481.11 78.8922H481.11C480.327 78.8922 479.581 79.0509 478.902 79.3381C477.035 80.1276 475.678 81.888 475.465 83.986C475.446 84.1769 475.436 84.3706 475.436 84.5663C475.436 84.674 475.44 84.7812 475.446 84.8878C475.448 84.9224 475.451 84.9565 475.453 84.991C475.459 85.0627 475.465 85.134 475.473 85.2051C475.477 85.2448 475.483 85.2843 475.488 85.3239C475.497 85.3896 475.506 85.4552 475.517 85.5197C475.524 85.5598 475.531 85.5995 475.539 85.6389C475.551 85.7052 475.565 85.7705 475.58 85.8358C475.586 85.8611 475.59 85.8867 475.596 85.9117L475.598 85.9142C476.002 87.5693 477.13 88.9403 478.629 89.6705L478.63 89.6712C478.633 89.6726 478.635 89.6736 478.638 89.675C478.727 89.7184 478.818 89.7592 478.91 89.7979C478.927 89.8053 478.945 89.8114 478.962 89.8185C479.036 89.8489 479.111 89.8782 479.187 89.9057C479.219 89.9174 479.252 89.928 479.285 89.9391C479.347 89.9598 479.408 89.9804 479.471 89.9992C479.509 90.0104 479.547 90.0206 479.585 90.0315C479.644 90.0479 479.703 90.0635 479.762 90.0781C479.802 90.0879 479.843 90.0971 479.883 90.1059C479.942 90.1189 480.001 90.131 480.061 90.1421C480.102 90.1496 480.143 90.1574 480.184 90.1639C480.246 90.1739 480.308 90.1825 480.37 90.1908C480.41 90.1959 480.449 90.2017 480.489 90.2061C480.557 90.2134 480.626 90.2185 480.695 90.224C480.73 90.2265 480.763 90.23 480.798 90.2317C480.901 90.2372 481.005 90.2407 481.109 90.2407H481.111H481.111C481.112 90.2407 481.112 90.2407 481.112 90.2407C481.217 90.2407 481.321 90.2372 481.424 90.2317C481.459 90.2298 481.492 90.2265 481.527 90.224C481.596 90.2189 481.665 90.2136 481.733 90.2061C481.773 90.2017 481.812 90.196 481.852 90.1908C481.914 90.1825 481.976 90.1741 482.038 90.1639C482.079 90.1572 482.12 90.1496 482.161 90.1421C482.22 90.1308 482.28 90.1189 482.339 90.1059C482.379 90.0969 482.42 90.0878 482.46 90.0781C482.519 90.0635 482.578 90.0479 482.637 90.0315C482.675 90.0206 482.713 90.0104 482.751 89.9992C482.813 89.9802 482.875 89.9598 482.937 89.9391C482.97 89.9278 483.003 89.9174 483.035 89.9057C483.111 89.8781 483.186 89.8487 483.261 89.8183C483.278 89.8113 483.295 89.8051 483.312 89.7979C483.404 89.7592 483.495 89.7183 483.584 89.675C483.587 89.6736 483.589 89.6726 483.592 89.6712L483.593 89.6705C485.092 88.9403 486.22 87.5693 486.624 85.9142L486.626 85.9117C486.63 85.8867 486.635 85.8611 486.64 85.8358Z" fill="#CCC3A8"/>
<path d="M536.136 85.8358C536.151 85.7705 536.165 85.705 536.178 85.6389C536.186 85.5995 536.193 85.5598 536.199 85.5197C536.21 85.4548 536.22 85.3895 536.229 85.3239C536.234 85.2843 536.239 85.2448 536.244 85.2051C536.252 85.1339 536.258 85.0627 536.263 84.991C536.266 84.9563 536.269 84.9222 536.271 84.8878C536.277 84.7812 536.28 84.6744 536.28 84.5663C536.28 84.3706 536.27 84.1769 536.251 83.986C536.038 81.888 534.682 80.1276 532.815 79.3381C532.136 79.0509 531.39 78.8922 530.606 78.8922H530.606C529.823 78.8922 529.076 79.0509 528.397 79.3381C526.53 80.1276 525.174 81.888 524.961 83.986C524.942 84.1769 524.932 84.3706 524.932 84.5663C524.932 84.674 524.935 84.7812 524.941 84.8878C524.943 84.9224 524.947 84.9565 524.949 84.991C524.954 85.0627 524.961 85.134 524.969 85.2051C524.973 85.2448 524.978 85.2843 524.983 85.3239C524.992 85.3896 525.002 85.4552 525.013 85.5197C525.02 85.5598 525.027 85.5995 525.034 85.6389C525.047 85.7052 525.061 85.7705 525.076 85.8358C525.082 85.8611 525.086 85.8867 525.092 85.9117L525.094 85.9142C525.498 87.5693 526.626 88.9403 528.125 89.6705L528.126 89.6712C528.128 89.6726 528.131 89.6736 528.134 89.675C528.223 89.7184 528.314 89.7592 528.406 89.7979C528.423 89.8053 528.441 89.8114 528.458 89.8185C528.532 89.8489 528.607 89.8782 528.683 89.9057C528.715 89.9174 528.748 89.928 528.781 89.939C528.842 89.9598 528.904 89.9804 528.967 89.9992C529.004 90.0104 529.042 90.0206 529.08 90.0315C529.139 90.0479 529.198 90.0635 529.258 90.0781C529.298 90.0879 529.338 90.0971 529.379 90.1059C529.438 90.1189 529.497 90.131 529.557 90.1421C529.598 90.1496 529.639 90.1574 529.68 90.1639C529.742 90.1739 529.803 90.1825 529.866 90.1908C529.905 90.1959 529.945 90.2017 529.985 90.2061C530.053 90.2134 530.122 90.2185 530.191 90.224C530.225 90.2265 530.259 90.23 530.294 90.2317C530.397 90.2372 530.501 90.2407 530.605 90.2407C530.605 90.2407 530.606 90.2407 530.607 90.2407H530.607H530.608C530.713 90.2407 530.817 90.2372 530.92 90.2317C530.954 90.2298 530.988 90.2265 531.023 90.224C531.092 90.2189 531.16 90.2136 531.229 90.2061C531.269 90.2017 531.308 90.196 531.348 90.1908C531.41 90.1825 531.472 90.1741 531.534 90.1639C531.575 90.1572 531.616 90.1496 531.657 90.1421C531.716 90.1308 531.776 90.1189 531.835 90.1059C531.875 90.0969 531.915 90.0878 531.956 90.0781C532.015 90.0635 532.074 90.0479 532.133 90.0315C532.171 90.0206 532.209 90.0104 532.247 89.9992C532.309 89.9802 532.371 89.9598 532.433 89.939C532.465 89.9278 532.498 89.9174 532.531 89.9057C532.607 89.8781 532.682 89.8487 532.756 89.8183C532.773 89.8113 532.791 89.8051 532.808 89.7979C532.9 89.7592 532.99 89.7183 533.08 89.675C533.082 89.6736 533.085 89.6726 533.088 89.6712L533.088 89.6705C534.588 88.9403 535.716 87.5693 536.119 85.9142L536.121 85.9117C536.126 85.8867 536.131 85.8611 536.136 85.8358Z" fill="#CCC3A8"/>
<path d="M473.433 84.5664C473.433 78.1611 478.149 72.8588 484.298 71.9404C483.678 71.8477 483.043 71.7987 482.397 71.7987C475.345 71.7987 469.629 77.5149 469.629 84.5664C469.629 91.6176 475.345 97.3339 482.397 97.3339C483.043 97.3339 483.678 97.2848 484.298 97.1922C478.149 96.2735 473.433 90.9712 473.433 84.5664Z" fill="#6B6861"/>
<path d="M484.277 89.9055C484.201 89.8782 484.126 89.8489 484.052 89.8183C484.034 89.8113 484.017 89.8051 484 89.7977C483.908 89.759 483.817 89.7181 483.728 89.6748C483.725 89.6734 483.723 89.6724 483.72 89.671L483.719 89.6703C482.22 88.9401 481.092 87.5692 480.688 85.914L480.686 85.9115C480.68 85.8864 480.676 85.8607 480.67 85.8356C480.655 85.7704 480.641 85.7048 480.628 85.6387C480.621 85.5993 480.614 85.5596 480.607 85.5195C480.596 85.4547 480.586 85.3893 480.578 85.3237C480.572 85.2842 480.567 85.2446 480.563 85.2049C480.555 85.1337 480.549 85.0625 480.543 84.9908C480.541 84.9561 480.537 84.922 480.536 84.8876C480.53 84.7811 480.526 84.6742 480.526 84.5661C480.526 84.3704 480.536 84.1767 480.555 83.9858C480.768 81.8879 482.125 80.1274 483.992 79.338C484.092 79.2954 484.195 79.2566 484.298 79.2197C483.704 79.0082 483.064 78.892 482.397 78.892H482.396H482.396C481.613 78.892 480.867 79.0507 480.188 79.338C478.321 80.1274 476.964 81.8879 476.751 83.9858C476.732 84.1767 476.722 84.3704 476.722 84.5661C476.722 84.6738 476.726 84.7811 476.732 84.8876C476.734 84.9222 476.737 84.9563 476.739 84.9908C476.745 85.0625 476.751 85.1339 476.759 85.2049C476.763 85.2446 476.768 85.2842 476.774 85.3237C476.783 85.3895 476.792 85.455 476.803 85.5195C476.81 85.5596 476.817 85.5993 476.824 85.6387C476.837 85.705 476.851 85.7704 476.866 85.8356C476.872 85.8609 476.876 85.8866 476.882 85.9115L476.884 85.914C477.288 87.5692 478.416 88.9401 479.915 89.6703L479.916 89.671C479.919 89.6724 479.921 89.6734 479.924 89.6748C480.014 89.7183 480.104 89.759 480.196 89.7977C480.213 89.8051 480.231 89.8113 480.248 89.8183C480.322 89.8487 480.397 89.8781 480.473 89.9055C480.505 89.9173 480.538 89.9278 480.571 89.9389C480.633 89.9596 480.694 89.9802 480.757 89.999C480.794 90.0102 480.833 90.0204 480.871 90.0313C480.929 90.0477 480.989 90.0633 481.048 90.0779C481.088 90.0878 481.129 90.0969 481.169 90.1057C481.228 90.1187 481.288 90.1308 481.347 90.1419C481.388 90.1495 481.429 90.1572 481.47 90.1637C481.531 90.1737 481.594 90.1823 481.656 90.1906C481.696 90.1957 481.735 90.2015 481.775 90.2059C481.843 90.2133 481.912 90.2184 481.981 90.2238C482.016 90.2263 482.049 90.2298 482.084 90.2316C482.187 90.237 482.291 90.2405 482.395 90.2405C482.395 90.2405 482.396 90.2405 482.397 90.2405H482.397H482.397H482.399C482.503 90.2405 482.607 90.237 482.71 90.2316C482.745 90.2296 482.778 90.2263 482.813 90.2238C482.882 90.2187 482.951 90.2134 483.019 90.2059C483.059 90.2015 483.098 90.1959 483.138 90.1906C483.2 90.1823 483.262 90.1739 483.324 90.1637C483.365 90.157 483.406 90.1495 483.447 90.1419C483.506 90.1307 483.566 90.1187 483.625 90.1057C483.665 90.0967 483.706 90.0876 483.745 90.0779C483.805 90.0633 483.864 90.0477 483.923 90.0313C483.961 90.0204 483.999 90.0102 484.037 89.999C484.099 89.98 484.161 89.9596 484.223 89.9389C484.248 89.9301 484.274 89.9216 484.299 89.9129C484.291 89.9104 484.284 89.9081 484.277 89.9055Z" fill="#C9B585"/>
<path d="M532.346 89.9055C532.27 89.8782 532.195 89.8489 532.121 89.8183C532.104 89.8113 532.086 89.8051 532.069 89.7977C531.977 89.759 531.887 89.7181 531.797 89.6748C531.795 89.6734 531.792 89.6724 531.789 89.671L531.789 89.6703C530.289 88.9401 529.161 87.5692 528.758 85.914L528.756 85.9115C528.749 85.8864 528.745 85.8607 528.739 85.8356C528.724 85.7704 528.71 85.7048 528.698 85.6387C528.69 85.5993 528.683 85.5596 528.676 85.5195C528.665 85.4547 528.656 85.3893 528.647 85.3237C528.642 85.2842 528.636 85.2446 528.632 85.2049C528.624 85.1337 528.618 85.0625 528.613 84.9908C528.61 84.9561 528.607 84.922 528.605 84.8876C528.599 84.7811 528.595 84.6742 528.595 84.5661C528.595 84.3704 528.605 84.1767 528.625 83.9858C528.838 81.8879 530.194 80.1274 532.061 79.338C532.161 79.2954 532.264 79.2566 532.368 79.2197C531.773 79.0082 531.133 78.892 530.466 78.892H530.466H530.465C529.682 78.892 528.936 79.0507 528.257 79.338C526.39 80.1274 525.033 81.8879 524.821 83.9858C524.801 84.1767 524.791 84.3704 524.791 84.5661C524.791 84.6738 524.795 84.7811 524.801 84.8876C524.803 84.9222 524.806 84.9563 524.809 84.9908C524.814 85.0625 524.82 85.1339 524.828 85.2049C524.832 85.2446 524.838 85.2842 524.843 85.3237C524.852 85.3895 524.861 85.455 524.872 85.5195C524.879 85.5596 524.886 85.5993 524.893 85.6387C524.906 85.705 524.92 85.7704 524.935 85.8356C524.941 85.8609 524.945 85.8866 524.951 85.9115L524.953 85.914C525.357 87.5692 526.485 88.9401 527.984 89.6703L527.985 89.671C527.988 89.6724 527.99 89.6734 527.993 89.6748C528.083 89.7183 528.173 89.759 528.265 89.7977C528.282 89.8051 528.3 89.8113 528.317 89.8183C528.391 89.8487 528.466 89.8781 528.542 89.9055C528.574 89.9173 528.608 89.9278 528.64 89.9389C528.702 89.9596 528.763 89.9802 528.826 89.999C528.864 90.0102 528.902 90.0204 528.94 90.0313C528.999 90.0477 529.058 90.0633 529.118 90.0779C529.157 90.0878 529.198 90.0969 529.238 90.1057C529.297 90.1187 529.357 90.1308 529.416 90.1419C529.457 90.1495 529.498 90.1572 529.539 90.1637C529.6 90.1737 529.662 90.1823 529.725 90.1906C529.765 90.1957 529.804 90.2015 529.844 90.2059C529.912 90.2133 529.981 90.2184 530.05 90.2238C530.085 90.2263 530.118 90.2298 530.153 90.2316C530.256 90.237 530.36 90.2405 530.464 90.2405H530.466H530.466H530.466C530.466 90.2405 530.467 90.2405 530.468 90.2405C530.572 90.2405 530.676 90.237 530.779 90.2316C530.814 90.2296 530.847 90.2263 530.882 90.2238C530.951 90.2187 531.02 90.2134 531.088 90.2059C531.128 90.2015 531.167 90.1959 531.207 90.1906C531.269 90.1823 531.331 90.1739 531.393 90.1637C531.434 90.157 531.475 90.1495 531.516 90.1419C531.575 90.1307 531.635 90.1187 531.694 90.1057C531.734 90.0967 531.774 90.0876 531.814 90.0779C531.874 90.0633 531.933 90.0477 531.992 90.0313C532.03 90.0204 532.068 90.0102 532.106 89.999C532.168 89.98 532.23 89.9596 532.291 89.9389C532.317 89.9301 532.343 89.9216 532.368 89.9129C532.361 89.9104 532.353 89.9081 532.346 89.9055Z" fill="#C9B585"/>
<path d="M552.706 59.9376L544.146 48.7642C544.145 48.7636 544.145 48.7633 544.144 48.7626L539.385 42.5506C539.115 42.1982 538.697 41.9918 538.253 41.9918H527.581C525.334 41.9918 523.505 43.8199 523.505 46.0671V48.3365H519.265V43.5545V38.1678H543.374C544.162 38.1678 544.8 37.5294 544.8 36.7414C544.8 35.9533 544.162 35.3149 543.374 35.3149H517.839C517.051 35.3149 516.412 35.9533 516.412 36.7414V42.128H515.763C514.209 38.0495 511.186 36.6795 508.933 35.6594C507.822 35.1567 506.863 34.7228 506.565 34.1656C505.293 31.7868 501.867 29.2395 498.795 29.2395C497.517 29.2395 496.369 29.6719 495.476 30.4902C493.414 32.379 488.228 34.2897 481.94 35.4762C477.172 36.3764 474.911 40.2558 474.081 42.128H467.193C464.881 42.128 463 44.0092 463 46.3217V47.0014C463 49.3138 464.881 51.1949 467.193 51.1949H468.169L484.636 70.8159C483.508 70.5265 482.327 70.3722 481.11 70.3722C473.284 70.3722 466.916 76.7396 466.916 84.5663C466.916 92.3926 473.284 98.76 481.11 98.76C485.764 98.76 489.902 96.5084 492.492 93.0376H507.197C507.985 93.0376 508.624 92.3991 508.624 91.6111C508.624 90.8231 507.985 90.1846 507.197 90.1846H494.142C494.888 88.4605 495.304 86.5612 495.304 84.5663C495.304 84.1975 495.285 83.8331 495.257 83.4711L496.946 85.4831C497.217 85.8061 497.617 85.9927 498.039 85.9927H516.483C516.631 87.4681 517.008 88.8766 517.574 90.1848H511.888C511.1 90.1848 510.462 90.8232 510.462 91.6113C510.462 92.3993 511.1 93.0377 511.888 93.0377H519.224C521.814 96.5086 525.952 98.7601 530.606 98.7601C536.986 98.7601 542.395 94.528 544.177 88.7237H548.924C551.171 88.7237 553 86.8954 553 84.6478V75.7831V70.0774V63.9915V60.8051C553.001 60.4915 552.897 60.1867 552.706 59.9376ZM481.11 95.9072C474.857 95.9072 469.769 90.8197 469.769 84.5663C469.769 78.3126 474.857 73.225 481.11 73.225C487.364 73.225 492.451 78.3126 492.451 84.5663C492.451 90.8199 487.364 95.9072 481.11 95.9072ZM550.148 61.2888V62.5652H536.165C535.693 62.5652 535.309 62.1813 535.309 61.7093V51.914C535.309 51.4422 535.693 51.0581 536.165 51.0581H542.309L550.148 61.2888ZM523.505 72.2842C521.853 73.2431 520.41 74.5231 519.265 76.042V58.8184V51.1896H523.505V72.2842ZM482.469 38.28C485.048 37.7931 493.745 35.9449 497.403 32.5943C497.772 32.257 498.227 32.0926 498.795 32.0926C500.724 32.0926 503.204 33.9306 504.05 35.5118C504.804 36.9229 506.238 37.5719 507.756 38.2589C509.57 39.0798 511.433 39.923 512.633 42.1284H477.283C478.159 40.6652 479.776 38.7883 482.469 38.28ZM471.889 51.1894H505.74C506.528 51.1894 507.167 50.551 507.167 49.763C507.167 48.9749 506.528 48.3365 505.74 48.3365H468.829C468.803 48.3365 468.778 48.3407 468.752 48.3419H467.193C466.454 48.3419 465.853 47.7406 465.853 47.0012V46.3215C465.853 45.5821 466.454 44.9808 467.193 44.9808H475.055L514.737 44.981C514.737 44.981 514.739 44.981 514.74 44.9811C514.743 44.9811 514.745 44.9808 514.747 44.9808H516.412V48.3363H510.622C509.834 48.3363 509.196 48.9747 509.196 49.7628C509.196 50.5508 509.834 51.1892 510.622 51.1892H516.412V58.818V82.7394V83.1398H498.704L471.889 51.1894ZM530.606 95.9072C524.353 95.9072 519.265 90.8197 519.265 84.5663C519.265 80.0924 521.869 76.2164 525.641 74.3718C525.752 74.3178 525.864 74.2675 525.975 74.2172C526.048 74.1846 526.12 74.1498 526.194 74.1183C526.368 74.0445 526.543 73.9757 526.72 73.9109C526.827 73.8715 526.936 73.8365 527.045 73.8005C527.124 73.7743 527.203 73.747 527.282 73.7226C527.398 73.6871 527.515 73.6547 527.633 73.6228C527.707 73.6025 527.781 73.5823 527.856 73.5635C527.974 73.5338 528.093 73.5069 528.213 73.4809C528.29 73.4642 528.368 73.4484 528.446 73.4333C528.562 73.4108 528.679 73.3895 528.796 73.3705C528.884 73.3564 528.973 73.3443 529.062 73.332C529.17 73.3172 529.278 73.3023 529.387 73.2907C529.5 73.2787 529.614 73.2701 529.728 73.2615C529.815 73.2548 529.902 73.2462 529.989 73.2417C530.194 73.2306 530.399 73.2241 530.606 73.2241C536.86 73.2241 541.947 78.3117 541.947 84.5654C541.947 84.7666 541.942 84.9683 541.931 85.1699C541.93 85.182 541.929 85.194 541.928 85.2063C541.917 85.3974 541.902 85.5888 541.881 85.7799C541.881 85.7844 541.88 85.789 541.88 85.7936C541.858 85.9897 541.832 86.1854 541.8 86.3805C541.798 86.3949 541.795 86.409 541.793 86.4232C541.763 86.6032 541.729 86.7825 541.69 86.9613C540.587 92.0688 536.038 95.9072 530.606 95.9072ZM548.925 85.8711H544.739C544.748 85.7802 544.752 85.6893 544.758 85.5983C544.767 85.4821 544.777 85.3664 544.783 85.2497C544.794 85.0217 544.8 84.7937 544.8 84.5663C544.8 76.7397 538.432 70.3722 530.606 70.3722C530.383 70.3722 530.162 70.379 529.941 70.3891C529.886 70.3915 529.832 70.395 529.778 70.3982C529.594 70.4088 529.411 70.4225 529.229 70.44C529.192 70.4437 529.155 70.4467 529.117 70.4508C528.659 70.4982 528.205 70.5684 527.756 70.6599C527.75 70.6614 527.743 70.6626 527.737 70.664C527.516 70.7095 527.296 70.7605 527.077 70.8167C527.069 70.8189 527.061 70.8208 527.053 70.8229C526.82 70.8832 526.588 70.9475 526.358 71.0199V49.763V46.0671C526.358 45.393 526.907 44.8446 527.581 44.8446H537.549L540.124 48.2052H536.165C534.12 48.2052 532.456 49.8689 532.456 51.9138V61.7091C532.456 63.754 534.12 65.4178 536.165 65.4178H550.148V68.6509H547.767C545.722 68.6509 544.058 70.3147 544.058 72.3596V73.5008C544.058 75.5456 545.722 77.2094 547.767 77.2094H550.148V84.6476C550.148 85.3225 549.599 85.8711 548.925 85.8711ZM550.148 74.3572H547.766C547.295 74.3572 546.911 73.9731 546.911 73.5013V72.3601C546.911 71.8883 547.295 71.5042 547.766 71.5042H550.148V74.3572V74.3572Z" fill="#231F20"/>
<path d="M511.06 53.7532C510.272 53.7532 509.634 54.3917 509.634 55.1797V79.4696C509.634 80.2577 510.272 80.8961 511.06 80.8961C511.848 80.8961 512.487 80.2577 512.487 79.4696V55.1795C512.487 54.3918 511.848 53.7532 511.06 53.7532Z" fill="#231F20"/>
<path d="M504.282 53.7532C503.494 53.7532 502.855 54.3917 502.855 55.1797V79.4696C502.855 80.2577 503.494 80.8961 504.282 80.8961C505.07 80.8961 505.708 80.2577 505.708 79.4696V55.1795C505.708 54.3918 505.07 53.7532 504.282 53.7532Z" fill="#231F20"/>
<path d="M483.947 53.7532C483.159 53.7532 482.52 54.3917 482.52 55.1797V58.4761C482.52 59.2642 483.159 59.9026 483.947 59.9026C484.735 59.9026 485.373 59.2642 485.373 58.4761V55.1795C485.373 54.3918 484.735 53.7532 483.947 53.7532Z" fill="#231F20"/>
<path d="M490.725 53.7532C489.937 53.7532 489.299 54.3917 489.299 55.1797V66.3733C489.299 67.1614 489.937 67.7998 490.725 67.7998C491.513 67.7998 492.152 67.1614 492.152 66.3733V55.1795C492.152 54.3918 491.513 53.7532 490.725 53.7532Z" fill="#231F20"/>
<path d="M497.504 53.7532C496.716 53.7532 496.077 54.3917 496.077 55.1797V74.7694C496.077 75.5574 496.716 76.1959 497.504 76.1959C498.292 76.1959 498.93 75.5574 498.93 74.7694V55.1795C498.93 54.3918 498.291 53.7532 497.504 53.7532Z" fill="#231F20"/>
<path d="M530.606 77.4654C526.691 77.4654 523.505 80.6507 523.505 84.5659C523.505 88.4815 526.691 91.6668 530.606 91.6668C531.694 91.6668 532.739 91.4269 533.711 90.9535C534.419 90.6086 534.714 89.7548 534.369 89.0466C534.024 88.3384 533.171 88.0441 532.462 88.3885C531.882 88.6708 531.258 88.8139 530.606 88.8139C528.264 88.8139 526.358 86.9082 526.358 84.5657C526.358 82.2236 528.264 80.318 530.606 80.318C532.948 80.318 534.854 82.2234 534.854 84.5657C534.854 84.9073 534.814 85.2465 534.734 85.5744C534.548 86.3397 535.017 87.1112 535.783 87.2976C536.549 87.4839 537.32 87.014 537.506 86.2487C537.639 85.7006 537.707 85.1346 537.707 84.5659C537.707 80.6507 534.522 77.4654 530.606 77.4654Z" fill="#231F20"/>
<path d="M481.11 77.4654C477.195 77.4654 474.01 80.6507 474.01 84.5659C474.01 88.4815 477.195 91.6668 481.11 91.6668C482.198 91.6668 483.243 91.4269 484.215 90.9535C484.923 90.6086 485.218 89.7548 484.873 89.0466C484.528 88.3384 483.675 88.0441 482.966 88.3885C482.387 88.6708 481.762 88.8139 481.11 88.8139C478.768 88.8139 476.862 86.9082 476.862 84.5657C476.862 82.2236 478.768 80.318 481.11 80.318C483.453 80.318 485.358 82.2234 485.358 84.5657C485.358 84.9073 485.318 85.2465 485.238 85.5744C485.052 86.3397 485.522 87.1112 486.287 87.2976C487.052 87.4839 487.824 87.014 488.01 86.2487C488.144 85.7006 488.212 85.1346 488.212 84.5659C488.211 80.6507 485.026 77.4654 481.11 77.4654Z" fill="#231F20"/>
<path d="M55.1818 26.1818C54.6364 21.5758 52.4242 18 48.5455 15.4545C44.6667 12.9091 39.9091 11.6364 34.2727 11.6364C30.1515 11.6364 26.5455 12.303 23.4545 13.6364C20.3939 14.9697 18 16.803 16.2727 19.1364C14.5758 21.4697 13.7273 24.1212 13.7273 27.0909C13.7273 29.5758 14.3182 31.7121 15.5 33.5C16.7121 35.2576 18.2576 36.7273 20.1364 37.9091C22.0152 39.0606 23.9848 40.0151 26.0455 40.7727C28.1061 41.5 30 42.0909 31.7273 42.5455L41.1818 45.0909C43.6061 45.7273 46.303 46.6061 49.2727 47.7273C52.2727 48.8485 55.1364 50.3788 57.8636 52.3182C60.6212 54.2273 62.8939 56.6818 64.6818 59.6818C66.4697 62.6818 67.3636 66.3636 67.3636 70.7273C67.3636 75.7576 66.0455 80.303 63.4091 84.3636C60.803 88.4242 56.9848 91.6515 51.9545 94.0455C46.9545 96.4394 40.8788 97.6364 33.7273 97.6364C27.0606 97.6364 21.2879 96.5606 16.4091 94.4091C11.5606 92.2576 7.74242 89.2576 4.95455 85.4091C2.19697 81.5606 0.636364 77.0909 0.272727 72H11.9091C12.2121 75.5152 13.3939 78.4242 15.4545 80.7273C17.5455 83 20.1818 84.697 23.3636 85.8182C26.5758 86.9091 30.0303 87.4545 33.7273 87.4545C38.0303 87.4545 41.8939 86.7576 45.3182 85.3636C48.7424 83.9394 51.4545 81.9697 53.4545 79.4545C55.4545 76.9091 56.4545 73.9394 56.4545 70.5455C56.4545 67.4545 55.5909 64.9394 53.8636 63C52.1364 61.0606 49.8636 59.4848 47.0455 58.2727C44.2273 57.0606 41.1818 56 37.9091 55.0909L26.4545 51.8182C19.1818 49.7273 13.4242 46.7424 9.18182 42.8636C4.93939 38.9848 2.81818 33.9091 2.81818 27.6364C2.81818 22.4242 4.22727 17.8788 7.04545 14C9.89394 10.0909 13.7121 7.0606 18.5 4.90909C23.3182 2.72727 28.697 1.63636 34.6364 1.63636C40.6364 1.63636 45.9697 2.71212 50.6364 4.86363C55.303 6.98484 59 9.89393 61.7273 13.5909C64.4849 17.2879 65.9394 21.4848 66.0909 26.1818H55.1818ZM104.989 97.6364C100.564 97.6364 96.5492 96.803 92.9432 95.1364C89.3371 93.4394 86.4735 91 84.3523 87.8182C82.2311 84.6061 81.1705 80.7273 81.1705 76.1818C81.1705 72.1818 81.9583 68.9394 83.5341 66.4545C85.1098 63.9394 87.2159 61.9697 89.8523 60.5455C92.4886 59.1212 95.3977 58.0606 98.5795 57.3636C101.792 56.6364 105.019 56.0606 108.261 55.6364C112.504 55.0909 115.943 54.6818 118.58 54.4091C121.246 54.1061 123.186 53.6061 124.398 52.9091C125.64 52.2121 126.261 51 126.261 49.2727V48.9091C126.261 44.4242 125.034 40.9394 122.58 38.4545C120.155 35.9697 116.473 34.7273 111.534 34.7273C106.413 34.7273 102.398 35.8485 99.4886 38.0909C96.5795 40.3333 94.5341 42.7273 93.3523 45.2727L83.1705 41.6364C84.9886 37.3939 87.4129 34.0909 90.4432 31.7273C93.5038 29.3333 96.8371 27.6667 100.443 26.7273C104.08 25.7576 107.655 25.2727 111.17 25.2727C113.413 25.2727 115.989 25.5455 118.898 26.0909C121.837 26.6061 124.67 27.6818 127.398 29.3182C130.155 30.9545 132.443 33.4242 134.261 36.7273C136.08 40.0303 136.989 44.4545 136.989 50V96H126.261V86.5455H125.716C124.989 88.0606 123.777 89.6818 122.08 91.4091C120.383 93.1364 118.125 94.6061 115.307 95.8182C112.489 97.0303 109.049 97.6364 104.989 97.6364ZM106.625 88C110.867 88 114.443 87.1667 117.352 85.5C120.292 83.8333 122.504 81.6818 123.989 79.0455C125.504 76.4091 126.261 73.6364 126.261 70.7273V60.9091C125.807 61.4545 124.807 61.9545 123.261 62.4091C121.746 62.8333 119.989 63.2121 117.989 63.5455C116.019 63.8485 114.095 64.1212 112.216 64.3636C110.367 64.5758 108.867 64.7576 107.716 64.9091C104.928 65.2727 102.322 65.8636 99.8977 66.6818C97.5038 67.4697 95.5644 68.6667 94.0795 70.2727C92.625 71.8485 91.8977 74 91.8977 76.7273C91.8977 80.4545 93.2765 83.2727 96.0341 85.1818C98.822 87.0606 102.352 88 106.625 88ZM167.295 54V96H156.568V26.1818H166.932V37.0909H167.841C169.477 33.5455 171.962 30.697 175.295 28.5455C178.629 26.3636 182.932 25.2727 188.205 25.2727C192.932 25.2727 197.068 26.2424 200.614 28.1818C204.159 30.0909 206.917 33 208.886 36.9091C210.856 40.7879 211.841 45.697 211.841 51.6364V96H201.114V52.3636C201.114 46.8788 199.689 42.6061 196.841 39.5455C193.992 36.4545 190.083 34.9091 185.114 34.9091C181.689 34.9091 178.629 35.6515 175.932 37.1364C173.265 38.6212 171.159 40.7879 169.614 43.6364C168.068 46.4848 167.295 49.9394 167.295 54ZM261.807 26.1818V35.2727H225.625V26.1818H261.807ZM236.17 9.45454H246.898V76C246.898 79.0303 247.337 81.303 248.216 82.8182C249.125 84.303 250.277 85.303 251.67 85.8182C253.095 86.303 254.595 86.5455 256.17 86.5455C257.352 86.5455 258.322 86.4848 259.08 86.3636C259.837 86.2121 260.443 86.0909 260.898 86L263.08 95.6364C262.352 95.9091 261.337 96.1818 260.034 96.4545C258.731 96.7576 257.08 96.9091 255.08 96.9091C252.049 96.9091 249.08 96.2576 246.17 94.9545C243.292 93.6515 240.898 91.6667 238.989 89C237.11 86.3333 236.17 82.9697 236.17 78.9091V9.45454ZM277.943 96V26.1818H288.67V96H277.943ZM283.398 14.5455C281.307 14.5455 279.504 13.8333 277.989 12.4091C276.504 10.9848 275.761 9.27273 275.761 7.27273C275.761 5.27273 276.504 3.56061 277.989 2.13636C279.504 0.71212 281.307 0 283.398 0C285.489 0 287.277 0.71212 288.761 2.13636C290.277 3.56061 291.034 5.27273 291.034 7.27273C291.034 9.27273 290.277 10.9848 288.761 12.4091C287.277 13.8333 285.489 14.5455 283.398 14.5455ZM328.864 97.6364C324.439 97.6364 320.424 96.803 316.818 95.1364C313.212 93.4394 310.348 91 308.227 87.8182C306.106 84.6061 305.045 80.7273 305.045 76.1818C305.045 72.1818 305.833 68.9394 307.409 66.4545C308.985 63.9394 311.091 61.9697 313.727 60.5455C316.364 59.1212 319.273 58.0606 322.455 57.3636C325.667 56.6364 328.894 56.0606 332.136 55.6364C336.379 55.0909 339.818 54.6818 342.455 54.4091C345.121 54.1061 347.061 53.6061 348.273 52.9091C349.515 52.2121 350.136 51 350.136 49.2727V48.9091C350.136 44.4242 348.909 40.9394 346.455 38.4545C344.03 35.9697 340.348 34.7273 335.409 34.7273C330.288 34.7273 326.273 35.8485 323.364 38.0909C320.455 40.3333 318.409 42.7273 317.227 45.2727L307.045 41.6364C308.864 37.3939 311.288 34.0909 314.318 31.7273C317.379 29.3333 320.712 27.6667 324.318 26.7273C327.955 25.7576 331.53 25.2727 335.045 25.2727C337.288 25.2727 339.864 25.5455 342.773 26.0909C345.712 26.6061 348.545 27.6818 351.273 29.3182C354.03 30.9545 356.318 33.4242 358.136 36.7273C359.955 40.0303 360.864 44.4545 360.864 50V96H350.136V86.5455H349.591C348.864 88.0606 347.652 89.6818 345.955 91.4091C344.258 93.1364 342 94.6061 339.182 95.8182C336.364 97.0303 332.924 97.6364 328.864 97.6364ZM330.5 88C334.742 88 338.318 87.1667 341.227 85.5C344.167 83.8333 346.379 81.6818 347.864 79.0455C349.379 76.4091 350.136 73.6364 350.136 70.7273V60.9091C349.682 61.4545 348.682 61.9545 347.136 62.4091C345.621 62.8333 343.864 63.2121 341.864 63.5455C339.894 63.8485 337.97 64.1212 336.091 64.3636C334.242 64.5758 332.742 64.7576 331.591 64.9091C328.803 65.2727 326.197 65.8636 323.773 66.6818C321.379 67.4697 319.439 68.6667 317.955 70.2727C316.5 71.8485 315.773 74 315.773 76.7273C315.773 80.4545 317.152 83.2727 319.909 85.1818C322.697 87.0606 326.227 88 330.5 88ZM408.625 123.636C403.443 123.636 398.989 122.97 395.261 121.636C391.534 120.333 388.428 118.606 385.943 116.455C383.489 114.333 381.534 112.061 380.08 109.636L388.625 103.636C389.595 104.909 390.822 106.364 392.307 108C393.792 109.667 395.822 111.106 398.398 112.318C401.004 113.561 404.413 114.182 408.625 114.182C414.261 114.182 418.913 112.818 422.58 110.091C426.246 107.364 428.08 103.091 428.08 97.2727V83.0909H427.17C426.383 84.3636 425.261 85.9394 423.807 87.8182C422.383 89.6667 420.322 91.3182 417.625 92.7727C414.958 94.197 411.352 94.9091 406.807 94.9091C401.17 94.9091 396.11 93.5758 391.625 90.9091C387.17 88.2424 383.64 84.3636 381.034 79.2727C378.458 74.1818 377.17 68 377.17 60.7273C377.17 53.5758 378.428 47.3485 380.943 42.0455C383.458 36.7121 386.958 32.5909 391.443 29.6818C395.928 26.7424 401.11 25.2727 406.989 25.2727C411.534 25.2727 415.14 26.0303 417.807 27.5455C420.504 29.0303 422.564 30.7273 423.989 32.6364C425.443 34.5151 426.564 36.0606 427.352 37.2727H428.443V26.1818H438.807V98C438.807 104 437.443 108.879 434.716 112.636C432.019 116.424 428.383 119.197 423.807 120.955C419.261 122.742 414.201 123.636 408.625 123.636ZM408.261 85.2727C412.564 85.2727 416.201 84.2879 419.17 82.3182C422.14 80.3485 424.398 77.5152 425.943 73.8182C427.489 70.1212 428.261 65.697 428.261 60.5455C428.261 55.5152 427.504 51.0758 425.989 47.2273C424.473 43.3788 422.231 40.3636 419.261 38.1818C416.292 36 412.625 34.9091 408.261 34.9091C403.716 34.9091 399.928 36.0606 396.898 38.3636C393.898 40.6667 391.64 43.7576 390.125 47.6364C388.64 51.5152 387.898 55.8182 387.898 60.5455C387.898 65.3939 388.655 69.6818 390.17 73.4091C391.716 77.1061 393.989 80.0152 396.989 82.1364C400.019 84.2273 403.777 85.2727 408.261 85.2727ZM562.807 32V23.8182C562.807 21.3333 563.246 18.697 564.125 15.9091C565.034 13.0909 566.337 10.3788 568.034 7.77273C569.761 5.13636 571.837 2.84848 574.261 0.909088L580.08 5.63636C578.17 8.36363 576.504 11.2121 575.08 14.1818C573.686 17.1212 572.989 20.2727 572.989 23.6364V32H562.807ZM641.398 41.8182L631.761 44.5455C631.155 42.9394 630.261 41.3788 629.08 39.8636C627.928 38.3182 626.352 37.0455 624.352 36.0455C622.352 35.0455 619.792 34.5455 616.67 34.5455C612.398 34.5455 608.837 35.5303 605.989 37.5C603.17 39.4394 601.761 41.9091 601.761 44.9091C601.761 47.5758 602.731 49.6818 604.67 51.2273C606.61 52.7727 609.64 54.0606 613.761 55.0909L624.125 57.6364C630.367 59.1515 635.019 61.4697 638.08 64.5909C641.14 67.6818 642.67 71.6667 642.67 76.5455C642.67 80.5455 641.519 84.1212 639.216 87.2727C636.943 90.4242 633.761 92.9091 629.67 94.7273C625.58 96.5455 620.822 97.4545 615.398 97.4545C608.277 97.4545 602.383 95.9091 597.716 92.8182C593.049 89.7273 590.095 85.2121 588.852 79.2727L599.034 76.7273C600.004 80.4848 601.837 83.303 604.534 85.1818C607.261 87.0606 610.822 88 615.216 88C620.216 88 624.186 86.9394 627.125 84.8182C630.095 82.6667 631.58 80.0909 631.58 77.0909C631.58 74.6667 630.731 72.6364 629.034 71C627.337 69.3333 624.731 68.0909 621.216 67.2727L609.58 64.5455C603.186 63.0303 598.489 60.6818 595.489 57.5C592.519 54.2879 591.034 50.2727 591.034 45.4545C591.034 41.5151 592.14 38.0303 594.352 35C596.595 31.9697 599.64 29.5909 603.489 27.8636C607.367 26.1364 611.761 25.2727 616.67 25.2727C623.58 25.2727 629.004 26.7879 632.943 29.8182C636.913 32.8485 639.731 36.8485 641.398 41.8182Z" fill="black"/>
</svg>
